<?xml version="1.0" encoding="utf-8"?>
<!-- Generator: Adobe Illustrator 21.0.0, SVG Export Plug-In . SVG Version: 6.00 Build 0)  -->
<svg version="1.1" id="圖層_1" xmlns="http://www.w3.org/2000/svg" xmlns:xlink="http://www.w3.org/1999/xlink" x="0px" y="0px"
	 viewBox="0 0 24 24" style="enable-background:new 0 0 24 24;" xml:space="preserve">
<style type="text/css">
	.st0{fill-rule:evenodd;clip-rule:evenodd;fill:#434343;}
</style>
<g>
	<path class="st0" d="M12,0c6.623,0,12,5.377,12,12c0,6.623-5.377,12-12,12C5.377,24,0,18.623,0,12C0,5.377,5.377,0,12,0 M14.557,16
		H9.442c0.546,2.46,1.441,4.114,2.558,5.744C13.194,20.003,14.041,18.334,14.557,16 M7.4,16H2.833
		c1.236,2.825,3.704,4.972,6.755,5.716C8.54,19.983,7.805,18.058,7.4,16 M21.167,16H16.6c-0.391,1.988-1.095,3.887-2.175,5.694
		C17.437,20.931,19.942,18.799,21.167,16 M7.162,10H2.2c-0.267,1.313-0.267,2.685,0,4h4.915C6.996,12.671,7.014,11.328,7.162,10
		 M14.823,10H9.176c-0.165,1.326-0.185,2.672-0.053,4h5.753C15.009,12.672,14.987,11.327,14.823,10 M21.8,10h-4.963
		c0.148,1.328,0.166,2.671,0.048,4H21.8C22.06,12.715,22.073,11.352,21.8,10 M9.644,2.271C6.567,3.003,4.077,5.157,2.833,8h4.653
		C7.921,5.958,8.664,4.015,9.644,2.271 M11.999,2.223C10.91,3.993,10.089,5.676,9.536,8h4.927
		C13.929,5.754,13.126,4.052,11.999,2.223 M14.367,2.292C15.38,4.104,16.1,6.052,16.513,8h4.654
		C19.935,5.184,17.405,3.042,14.367,2.292"/>
</g>
</svg>
