<?xml version="1.0" encoding="utf-8"?>
<!-- Generator: Adobe Illustrator 21.0.0, SVG Export Plug-In . SVG Version: 6.00 Build 0)  -->
<svg version="1.1" id="iconmonstr" xmlns="http://www.w3.org/2000/svg" xmlns:xlink="http://www.w3.org/1999/xlink" x="0px" y="0px"
	 viewBox="0 0 24 24" style="enable-background:new 0 0 24 24;" xml:space="preserve">
<style type="text/css">
	.st0{fill:#434343;}
</style>
<path id="smartphone-3" class="st0" d="M19,2c0-1.105-0.896-2-2-2H7C5.895,0,5,0.896,5,2v20c0,1.104,0.895,2,2,2h10
	c1.104,0,2-0.896,2-2V2z M10.499,2H13.5C13.776,2,14,2.224,14,2.5C14,2.776,13.776,3,13.5,3h-3.001C10.224,3,10,2.776,10,2.5
	C10,2.224,10.224,2,10.499,2z M12,22c-0.553,0-1-0.448-1-1s0.447-1,1-1c0.552,0,0.999,0.448,0.999,1S12.552,22,12,22z M17,19H7
	V4.976h10V19z"/>
</svg>
